<svg xmlns="http://www.w3.org/2000/svg" viewBox="0 0 198 180.28"><defs><style>.a{fill:#0d365a;}</style></defs><path class="a" d="M198,127,189.74,40.6A17.94,17.94,0,0,0,171.8,24.23H103.55V3.7a4.49,4.49,0,0,0-8.84,0V24.25H26.37A18.11,18.11,0,0,0,8.27,40.71L.09,126.34a17.8,17.8,0,0,0,16,19.47h0a17.34,17.34,0,0,0,1.77.09h20v25.54A8.55,8.55,0,0,0,54.9,172V145.9H70.6v25.54a8.57,8.57,0,0,0,17.11,0V145.9h22.57v25.54a8.57,8.57,0,0,0,17.11,0V145.9h15.7v25.54a8.55,8.55,0,0,0,17.09.59V145.9h20.54A17.25,17.25,0,0,0,198,128.68v0c0-.55,0-1.1-.08-1.65Zm-12.12,6.21,0,0a6.73,6.73,0,0,1-5,2.25H160.31v-4.24A8.61,8.61,0,0,0,154,123V102.14a15.89,15.89,0,0,0-11.6-15.27,15.88,15.88,0,1,0-13,0,15.88,15.88,0,0,0-11.64,15.28v20.59a8.58,8.58,0,0,0-7.51,8.46v4.23H87.85v-4.23a8.61,8.61,0,0,0-6.28-8.2V102.14a15.93,15.93,0,0,0-10.81-15,15.88,15.88,0,1,0-14.78,0,15.93,15.93,0,0,0-10.78,15h0v20.59a8.56,8.56,0,0,0-7.4,8.46v4.23h-20a7.35,7.35,0,0,1-7.39-7.31h0v-.75L18.7,41.7a7.7,7.7,0,0,1,7.67-7h145.4a7.6,7.6,0,0,1,7.59,6.91L187.61,128A6.57,6.57,0,0,1,185.88,133.2Z"/></svg>