<svg xmlns="http://www.w3.org/2000/svg" viewBox="0 0 553.27 180"><defs><style>.cls-1{fill:#fff;}</style></defs><g id="Layer_2" data-name="Layer 2"><g id="Layer_1-2" data-name="Layer 1"><path class="cls-1" d="M53.62,48.91A15.82,15.82,0,1,0,69.4,64.78v-.09A15.84,15.84,0,0,0,53.62,48.91Z"/><path class="cls-1" d="M117,48.91a15.82,15.82,0,1,0,15.77,15.87v-.09A15.83,15.83,0,0,0,117,48.91Z"/><path class="cls-1" d="M179.9,48.91a15.82,15.82,0,1,0,15.77,15.87v-.09A15.82,15.82,0,0,0,179.9,48.91Z"/><path class="cls-1" d="M243,48.91a15.82,15.82,0,1,0,15.77,15.87v-.09A15.83,15.83,0,0,0,243,48.91Z"/><path class="cls-1" d="M306.13,48.91A15.82,15.82,0,1,0,322,64.73v0A15.83,15.83,0,0,0,306.13,48.91Z"/><path class="cls-1" d="M369.27,48.91a15.82,15.82,0,1,0,15.82,15.82v0A15.83,15.83,0,0,0,369.27,48.91Z"/><path class="cls-1" d="M552.78,118.53l-14.09-73A24,24,0,0,0,515.22,26h-300V4.37a4.37,4.37,0,1,0-8.73,0V26H40.1A24.17,24.17,0,0,0,16.63,44.74l-16,72.81a24,24,0,0,0,23.47,29.24h4.08v24.32a8.54,8.54,0,0,0,17,0V146.79H60.85v24.32a8.5,8.5,0,0,0,17,0h0V146.79H91.27v24.32a8.54,8.54,0,0,0,17,0V146.79H124v24.32a8.5,8.5,0,0,0,17,0V146.79h13.52v24.32a8.5,8.5,0,0,0,17,0V146.79h15.87v24.32a8.5,8.5,0,0,0,17,0V146.79h13.43v24.32a8.5,8.5,0,0,0,17,0h0V146.79h15.49v24.32a8.5,8.5,0,0,0,17,0V146.79h13.42v24.32a8.5,8.5,0,0,0,17,0V146.79h15.72v24.32a8.5,8.5,0,0,0,17,0V146.79h13.42v24.32a8.5,8.5,0,0,0,17,0V146.79h15.73v24.32a8.5,8.5,0,0,0,17,0V146.79H529.4a23.81,23.81,0,0,0,23.47-28.16Zm-13,13a13.4,13.4,0,0,1-10.33,4.7H393.58v-5.12a8.61,8.61,0,0,0-6.24-8.21V102.2a15.87,15.87,0,0,0-15.82-15.78h-4.69A15.87,15.87,0,0,0,351,102.2v20.46a8.45,8.45,0,0,0-7.37,8.41v5.25H330.45v-5.21a8.63,8.63,0,0,0-6.25-8.21V102.2a15.87,15.87,0,0,0-15.82-15.78h-4.69a15.87,15.87,0,0,0-15.82,15.78v20.46a8.46,8.46,0,0,0-7.37,8.41v5.25H267.21v-5.21A8.61,8.61,0,0,0,261,122.9V102.2a15.87,15.87,0,0,0-15.82-15.78h-4.69A15.88,15.88,0,0,0,225,102.2v20.46a8.46,8.46,0,0,0-7.37,8.41v5.25H204.17v-5.21a8.63,8.63,0,0,0-6.24-8.21V102.2a15.89,15.89,0,0,0-15.82-15.78h-4.46a15.87,15.87,0,0,0-15.82,15.78v20.46a8.45,8.45,0,0,0-7.28,8.45v5.26H141v-5.26a8.63,8.63,0,0,0-6.24-8.21V102.2A15.88,15.88,0,0,0,119,86.42h-4.69A15.87,15.87,0,0,0,98.5,102.2v20.46a8.46,8.46,0,0,0-7.37,8.41v5.25H77.89v-5.21a8.62,8.62,0,0,0-6.24-8.21V102.2A15.87,15.87,0,0,0,56,86.42H51.28A15.87,15.87,0,0,0,35.46,102.2v20.46a8.45,8.45,0,0,0-7.37,8.41v5.25H24a13.61,13.61,0,0,1-13.66-13.57,13.79,13.79,0,0,1,.33-3l16.1-72.67A13.76,13.76,0,0,1,40.1,36.38h475a13.71,13.71,0,0,1,13.43,11.17l14.08,73.09A13.42,13.42,0,0,1,539.73,131.53Z"/><path class="cls-1" d="M433.43,49.31a15.82,15.82,0,1,0,15.82,15.82v0A15.81,15.81,0,0,0,433.43,49.31Z"/><path class="cls-1" d="M408,142V171.5a8.5,8.5,0,1,0,17,0V142l15.72,5.15V171.5a8.5,8.5,0,0,0,17,0V140.87"/><path class="cls-1" d="M457.75,136.62v-5.11a8.65,8.65,0,0,0-6.25-8.22v-20.7a15.86,15.86,0,0,0-15.81-15.77H431a15.86,15.86,0,0,0-15.82,15.77v20.47a8.45,8.45,0,0,0-7.37,8.4v5.26H394.61"/><path class="cls-1" d="M494.43,49.31a15.82,15.82,0,1,0,15.82,15.82v0A15.82,15.82,0,0,0,494.43,49.31Z"/><path class="cls-1" d="M469,142V171.5a8.5,8.5,0,0,0,17,0V142l15.72,5.15V171.5a8.5,8.5,0,0,0,17,0V140.87"/><path class="cls-1" d="M518.75,136.62v-5.11a8.65,8.65,0,0,0-6.25-8.22v-20.7a15.86,15.86,0,0,0-15.82-15.77H492a15.86,15.86,0,0,0-15.82,15.77v20.47a8.45,8.45,0,0,0-7.37,8.4v5.26H455.61"/></g></g></svg>