<svg xmlns="http://www.w3.org/2000/svg" viewBox="0 0 737.44 600"><defs><style>.cls-1{fill:#0d365a;}</style></defs><g id="Layer_2" data-name="Layer 2"><g id="Layer_1-2" data-name="Layer 1"><path class="cls-1" d="M737.44,300,527.46,0,368.72,226.79,210,0,0,300,210,600,368.72,373.21,527.46,600ZM257.87,252.5a2.36,2.36,0,0,1-2.37,2.37H190.86a.87.87,0,0,0-1,1V286.4a.87.87,0,0,0,1,1h42.37a2.36,2.36,0,0,1,2.37,2.36v19.12a2.36,2.36,0,0,1-2.37,2.36H190.86a.87.87,0,0,0-1,1v31.92a.87.87,0,0,0,1,1H255.5a2.36,2.36,0,0,1,2.37,2.37v19.11A2.36,2.36,0,0,1,255.5,369H164.45a2.36,2.36,0,0,1-2.36-2.37V233.39a2.36,2.36,0,0,1,2.36-2.37H255.5a2.36,2.36,0,0,1,2.37,2.37Zm269.1,70L501.15,367.4a3.28,3.28,0,0,1-3,1.58H473.36a2.31,2.31,0,0,1-2-.79c-.39-.53-.33-1.18.2-2l38.23-65.63a1,1,0,0,0,0-1.18l-38.23-65.63-.4-1.18c0-1,.72-1.58,2.17-1.58h25a3.28,3.28,0,0,1,3,1.58L527,277.73c.39.79.78.79,1.18,0l25.62-45.13a3.25,3.25,0,0,1,3-1.58h24.84a2.34,2.34,0,0,1,2,.79c.39.53.32,1.18-.2,2L545.1,299.41a1.71,1.71,0,0,0,0,1.18l38.23,65.63.39,1.18c0,1.05-.72,1.58-2.16,1.58H556.72a3.25,3.25,0,0,1-3-1.58l-25.62-44.93C527.75,321.68,527.36,321.68,527,322.47Z"/></g></g></svg>