<svg xmlns="http://www.w3.org/2000/svg" viewBox="0 0 748.38 608.9"><defs><style>.cls-1{fill:#fff;}</style></defs><g id="Layer_2" data-name="Layer 2"><g id="Layer_1-2" data-name="Layer 1"><polygon points="213.09 0 0 304.45 213.09 608.9 426.19 304.45 213.09 0"/><polygon points="535.29 0 322.19 304.45 535.29 608.9 748.38 304.45 535.29 0"/><path class="cls-1" d="M261,258a2.32,2.32,0,0,1-1.7.7H193.7a.89.89,0,0,0-1,1v31a.88.88,0,0,0,1,1h43a2.39,2.39,0,0,1,2.4,2.4v19.4a2.39,2.39,0,0,1-2.4,2.4h-43a.89.89,0,0,0-1,1v32.4a.88.88,0,0,0,1,1h65.6a2.39,2.39,0,0,1,2.4,2.4v19.4a2.39,2.39,0,0,1-2.4,2.4H166.9a2.39,2.39,0,0,1-2.4-2.4V236.85a2.39,2.39,0,0,1,2.4-2.4h92.4a2.39,2.39,0,0,1,2.4,2.4v19.4A2.32,2.32,0,0,1,261,258Z"/><path class="cls-1" d="M478.39,373.65c-.4-.53-.34-1.2.2-2l38.8-66.6a1,1,0,0,0,0-1.2l-38.8-66.6-.4-1.2c0-1.06.73-1.6,2.2-1.6h25.4a3.33,3.33,0,0,1,3,1.6l26,45.8q.6,1.2,1.2,0l26-45.8a3.3,3.3,0,0,1,3-1.6h25.2a2.35,2.35,0,0,1,2,.8c.4.54.33,1.2-.2,2l-38.8,66.6a1.77,1.77,0,0,0,0,1.2l38.8,66.6.4,1.2c0,1.07-.74,1.6-2.2,1.6H565a3.28,3.28,0,0,1-3-1.6l-26-45.6q-.6-1.2-1.2,0l-26.2,45.6a3.31,3.31,0,0,1-3,1.6h-25.2A2.31,2.31,0,0,1,478.39,373.65Z"/></g></g></svg>