<svg xmlns="http://www.w3.org/2000/svg" viewBox="0 0 303.05 180"><defs><style>.cls-1{fill:#0d365a;}</style></defs><g id="Layer_2" data-name="Layer 2"><g id="Layer_1-2" data-name="Layer 1"><circle class="cls-1" cx="59.34" cy="64.83" r="15.8"/><circle class="cls-1" cx="121.13" cy="64.86" r="15.8"/><circle class="cls-1" cx="182.94" cy="64.82" r="15.8"/><circle class="cls-1" cx="244.77" cy="64.82" r="15.8" transform="translate(91.21 266.15) rotate(-67.5)"/><path class="cls-1" d="M302.77,119.18,290.06,46.26a24.34,24.34,0,0,0-24-20.17H155.89V4.41a4.41,4.41,0,1,0-8.81,0h0V26.09H40.17A24.3,24.3,0,0,0,16.64,45L.57,117.77A24.09,24.09,0,0,0,24.1,147.05h9.72v24.38a8.51,8.51,0,1,0,17,0h0V147.12h15.7v24.37a8.54,8.54,0,0,0,17,0V147.12H95.68v24.37a8.53,8.53,0,0,0,8.54,8.51h0a8.55,8.55,0,0,0,8.5-8.51V147.12h15.7v24.37a8.54,8.54,0,0,0,17.05,0V147.12h12v24.37a8.54,8.54,0,0,0,17.05,0V147.12h15.7v24.37a8.54,8.54,0,0,0,17,0V147.12h12v24.37a8.54,8.54,0,0,0,17,0V147.12h15.7v24.37a8.51,8.51,0,0,0,17,0V147.12h10.09a23.79,23.79,0,0,0,23.88-23.72,23.1,23.1,0,0,0-.35-4.15Zm-13.45,12.68a13.44,13.44,0,0,1-10.08,4.77H269.15v-5.28a8.5,8.5,0,0,0-6.25-8.2V102.41a15.83,15.83,0,0,0-15.8-15.8h-4.58a15.83,15.83,0,0,0-15.8,15.8v20.5a8.55,8.55,0,0,0-7.39,8.44v5.28h-12v-5.28a8.5,8.5,0,0,0-6.29-8.2V102.41a15.82,15.82,0,0,0-15.86-15.8H180.7a15.83,15.83,0,0,0-15.77,15.8v20.5a8.56,8.56,0,0,0-7.4,8.44v5.28H145.47v-5.28a8.5,8.5,0,0,0-6.26-8.2V102.41a15.85,15.85,0,0,0-15.83-15.8h-4.51a15.83,15.83,0,0,0-15.8,15.8v20.5a8.55,8.55,0,0,0-7.39,8.44v5.28h-12v-5.28a8.5,8.5,0,0,0-6.12-8.2V102.41a15.83,15.83,0,0,0-15.8-15.8H57.08a15.85,15.85,0,0,0-15.83,15.8v20.5a8.55,8.55,0,0,0-7.43,8.44v5.28H24.1A13.67,13.67,0,0,1,10.34,123a13.86,13.86,0,0,1,.31-3l16-72.85A13.78,13.78,0,0,1,40.14,36.45H266a13.9,13.9,0,0,1,13.75,11.6L292.35,121A13.46,13.46,0,0,1,289.32,131.86Z"/></g></g></svg>