<svg xmlns="http://www.w3.org/2000/svg" viewBox="0 0 89.68 73.33"><defs><style>.cls-1{fill:#fff;}</style></defs><g id="Layer_2" data-name="Layer 2"><g id="Layer_1-2" data-name="Layer 1"><rect class="cls-1" x="2.73" y="56.96" width="88.37" height="4.47" rx="1.24" transform="translate(-14.62 15.4) rotate(-16.16)"/><path class="cls-1" d="M9.39,64.74,88.18,42.23a1.62,1.62,0,0,0,1.17-1.56V1.53A1.53,1.53,0,0,0,87.82,0h-7.4L1.4,22.49A1.92,1.92,0,0,0,0,24.34V60.7a1.7,1.7,0,0,0,1.16,1.61l7.23,2.41A1.63,1.63,0,0,0,9.39,64.74ZM71.48,7.84a1,1,0,0,1,.7-.93L80.6,4.5l.27,0h3a1,1,0,0,1,1,1V19.14a1,1,0,0,1-1,1H73a1.49,1.49,0,0,1-1.5-1.49Zm-13.4,4A1.21,1.21,0,0,1,59,10.69l6.83-1.95A1,1,0,0,1,67,9.67V42.9a1,1,0,0,1-.7.93l-7,2a1,1,0,0,1-1.23-.93ZM40.21,16.05l13.4-3.83V27.55A1.49,1.49,0,0,1,52.12,29H40.21Zm-17.87,5.1,13.4-3.83V32a1.5,1.5,0,0,1-1.49,1.5H22.34ZM4.47,26.26l13.4-3.83v14A1.5,1.5,0,0,1,16.38,38H4.47Z"/></g></g></svg>