<?xml version="1.0" encoding="utf-8"?>
<!-- Generator: Adobe Illustrator 26.0.1, SVG Export Plug-In . SVG Version: 6.00 Build 0)  -->
<svg version="1.1" id="Layer_1" xmlns="http://www.w3.org/2000/svg" xmlns:xlink="http://www.w3.org/1999/xlink" x="0px" y="0px"
	 viewBox="0 0 180.1 180" style="enable-background:new 0 0 180.1 180;" xml:space="preserve">
<style type="text/css">
	.st0{fill:#FFFFFF;}
</style>
<g id="Layer_2_00000071556246134517777500000003132269061674729348_">
	<g id="Layer_1-2">
		<path class="st0" d="M18.8,66.4c-3.4,7-14.3,31.5-14.3,53.6s11,46.8,14.3,53.9c0.4,0.9,1.3,1.6,2.4,1.6h137.6c1,0,1.9-0.6,2.4-1.6
			c3.4-7,14.3-31.8,14.3-53.9s-11-46.7-14.3-53.6c-0.4-0.9-1.3-1.5-2.4-1.6H21.2C20.2,64.8,19.2,65.5,18.8,66.4z M137.8,76.4
			c0-1.2,1-2.2,2.2-2.2h9.5c2.4,0,4.6,1.3,5.7,3.5c3.4,6.6,10.4,26.1,10.4,44.5c0,1.2-1,2.2-2.2,2.2h-23.4c-1.2,0-2.2-1-2.2-2.2
			V76.4z M93.4,76.4c0-1.2,1-2.2,2.2-2.2H128c1.2,0,2.2,1,2.2,2.2v45.7c0,1.2-1,2.2-2.2,2.2H95.7c-1.2,0-2.2-1-2.2-2.2c0,0,0,0,0,0
			V76.4z M49.9,76.4c0-1.2,1-2.2,2.2-2.2h32.3c1.2,0,2.2,1,2.2,2.2v45.7c0,1.2-1,2.2-2.2,2.2H52.1c-1.2,0-2.2-1-2.2-2.2L49.9,76.4z
			 M30.2,74.2h9.5c1.2,0,2.3,1,2.3,2.2c0,0,0,0,0,0v45.7c0,1.2-1,2.2-2.2,2.2H16.4c-1.2,0-2.2-1-2.3-2.2c0,0,0,0,0,0
			c0-18.4,7-37.9,10.4-44.5C25.6,75.5,27.8,74.2,30.2,74.2z"/>
		<path class="st0" d="M2.8,0C1.5-0.2,0.4,0.6,0.1,1.8c0,0,0,0,0,0.1c-0.2,1.1,0.4,2.1,1.4,2.5H25L2.8,0z"/>
		<path class="st0" d="M83.3,20c-5.2,3.7-6.4,10.9-2.7,16.1c1.7,2.4,4.3,4.1,7.2,4.6v8.7H55.3c-5.1-0.1-9.3,3.9-9.5,9v1.9H21.2
			c-2.8,0-5.2,1.6-6.4,4.1C10.3,73.7,0,97.6,0,120s10.3,46.5,14.8,55.8c1.1,2.5,3.6,4.2,6.4,4.2h137.6c2.8,0,5.3-1.6,6.4-4.1
			c4.4-9.3,14.8-33.4,14.8-55.9s-10.3-46.3-14.8-55.6c-1.2-2.5-3.6-4.1-6.4-4.1h-24.7v-1.9c-0.2-5.1-4.4-9.1-9.5-9H92.2v-8.7
			c6.2-1.2,10.3-7.3,9.1-13.5c-0.3-1.4-0.8-2.8-1.6-4L177.4,38c0.1,0,0.3,0,0.4,0c1.2,0,2.2-1,2.2-2.3c0-1.1-0.8-2-1.8-2.2L25,4.3
			H1.5c0.1,0.1,0.3,0.1,0.4,0.2L83.3,20z M158.8,64.8c1,0,1.9,0.6,2.4,1.6c3.4,7,14.3,31.5,14.3,53.6s-11,46.8-14.3,53.9
			c-0.4,0.9-1.3,1.6-2.4,1.6H21.2c-1,0-1.9-0.6-2.4-1.6c-3.4-7-14.3-31.7-14.3-53.9s11-46.7,14.3-53.6c0.4-0.9,1.3-1.5,2.4-1.6
			L158.8,64.8z M124.7,53.9c2.6-0.1,4.9,1.9,5,4.5v1.9H50.3v-1.9c0.1-2.6,2.4-4.7,5-4.5L124.7,53.9z M90,22.3c3.9,0,7.1,3.2,7,7.1
			s-3.2,7.1-7.1,7c-3.9,0-7.1-3.2-7.1-7.1C82.9,25.5,86.1,22.3,90,22.3z"/>
	</g>
</g>
</svg>
