<svg xmlns="http://www.w3.org/2000/svg" viewBox="0 0 180.05 180"><defs><style>.cls-1{fill:#fff;}</style></defs><g id="Layer_2" data-name="Layer 2"><g id="Layer_1-2" data-name="Layer 1"><rect class="cls-1" x="54.35" y="78.65" width="27.84" height="41.22"/><rect class="cls-1" x="97.94" y="78.65" width="27.84" height="41.22"/><path class="cls-1" d="M37.46,78.65H30.17a1.9,1.9,0,0,0-1.71,1c-3,5.76-9.29,23.45-9.83,40.19H37.46Z"/><path class="cls-1" d="M151.34,79.69a1.93,1.93,0,0,0-1.72-1h-7.29v41.22h18.83C160.62,103.13,154.29,85.45,151.34,79.69Z"/><path class="cls-1" d="M18.83,66.4C15.47,73.39,4.5,97.91,4.5,120s11,46.84,14.34,53.88a2.63,2.63,0,0,0,2.35,1.58H158.78a2.62,2.62,0,0,0,2.35-1.58c3.36-7,14.34-31.75,14.34-53.88s-11-46.65-14.33-53.64a2.66,2.66,0,0,0-2.35-1.57H21.18A2.66,2.66,0,0,0,18.83,66.4Zm119,10a2.25,2.25,0,0,1,2.25-2.25h9.54a6.39,6.39,0,0,1,5.72,3.49c3.38,6.58,10.36,26.12,10.36,44.48a2.25,2.25,0,0,1-2.25,2.25H140.08a2.25,2.25,0,0,1-2.25-2.25Zm-44.39,0a2.25,2.25,0,0,1,2.25-2.25H128a2.25,2.25,0,0,1,2.25,2.25v45.72a2.25,2.25,0,0,1-2.25,2.25H95.69a2.24,2.24,0,0,1-2.25-2.25Zm-43.59,0a2.25,2.25,0,0,1,2.25-2.25H84.44a2.25,2.25,0,0,1,2.25,2.25v45.72a2.25,2.25,0,0,1-2.25,2.25H52.1a2.25,2.25,0,0,1-2.25-2.25ZM30.18,74.15h9.53A2.25,2.25,0,0,1,42,76.4v45.72a2.25,2.25,0,0,1-2.25,2.25H16.35a2.24,2.24,0,0,1-2.25-2.25c0-18.36,7-37.9,10.36-44.48A6.39,6.39,0,0,1,30.18,74.15Z"/><path class="cls-1" d="M2.75,0A2.24,2.24,0,0,0,.12,1.83,2.21,2.21,0,0,0,1.52,4.3H25Z"/><path class="cls-1" d="M83.25,20A11.52,11.52,0,0,0,87.73,40.7v8.68H55.32a9.29,9.29,0,0,0-9.49,9v1.92H21.18a7.09,7.09,0,0,0-6.4,4.12C10.33,73.68,0,97.58,0,120s10.33,46.51,14.78,55.82A7.09,7.09,0,0,0,21.19,180H158.78a7.09,7.09,0,0,0,6.41-4.14C169.64,166.55,180,142.48,180,120s-10.33-46.35-14.78-55.59a7.08,7.08,0,0,0-6.4-4.11H134.14V58.42a9.29,9.29,0,0,0-9.49-9H92.23V40.7a11.51,11.51,0,0,0,7.48-17.54L177.38,38a2,2,0,0,0,.42.05,2.25,2.25,0,0,0,.42-4.46L25,4.3H1.52a2.27,2.27,0,0,0,.39.16Zm75.54,44.82a2.66,2.66,0,0,1,2.35,1.57c3.36,7,14.33,31.51,14.33,53.64s-11,46.84-14.34,53.88a2.62,2.62,0,0,1-2.35,1.58H21.19a2.63,2.63,0,0,1-2.35-1.58C15.48,166.88,4.5,142.17,4.5,120s11-46.65,14.33-53.64a2.66,2.66,0,0,1,2.35-1.57ZM124.65,53.88a4.79,4.79,0,0,1,5,4.54v1.92H50.33V58.42a4.79,4.79,0,0,1,5-4.54ZM90,22.31a7.06,7.06,0,1,1-7.07,7.06A7.07,7.07,0,0,1,90,22.31Z"/><path class="cls-1" d="M28.46,79.69a1.9,1.9,0,0,1,1.71-1h7.29v41.23H18.63C19.17,103.14,25.5,85.45,28.46,79.69Z"/><path class="cls-1" d="M54.35,78.65H82.19v41.22H54.35Z"/></g></g></svg>