<svg xmlns="http://www.w3.org/2000/svg" xmlns:xlink="http://www.w3.org/1999/xlink" viewBox="0 0 163.59 211.85"><defs><style>.cls-1{fill:none;}.cls-2,.cls-4{fill:#fff;}.cls-2{fill-rule:evenodd;}.cls-3{clip-path:url(#clip-path);}</style><clipPath id="clip-path"><circle class="cls-1" cx="81.72" cy="80.69" r="60.76"/></clipPath></defs><g id="Layer_2" data-name="Layer 2"><g id="Layer_1-2" data-name="Layer 1"><path class="cls-2" d="M81.79,0c-66,0-107.74,76.28-63.48,133.07l18.38,23.66c3.34,4.17,10-.84,6.68-5.29-18.1-22.83-34.8-39.25-34.8-69.87,0-40.37,32.85-73.5,73.22-73.5,62.35,0,95.76,72.94,56.78,120.26L81.79,201,64.25,178.44c-3.34-4.45-10,.84-6.68,5l21.15,26.73a3.92,3.92,0,0,0,6.41,0L145,133.62C190.35,74.33,146.37,0,81.79,0Z"/><path class="cls-2" d="M53.39,164.8c-5.57-5.85-10.86,7-2.78,7A4,4,0,0,0,53.39,164.8Z"/><path class="cls-2" d="M138.65,49.21c-3-5.56-11.46-1-8.51,4.91a55,55,0,0,1-9.16,66.1A55.54,55.54,0,0,1,42.44,41.68a55.11,55.11,0,0,1,65.12-9.81c5.89,2.94,10.47-5.57,4.58-8.51C68.94.45,16.58,31.87,16.58,81c0,58.25,70.36,87.05,111.27,46.15C148.46,106.48,153.05,74.41,138.65,49.21Z"/><path class="cls-2" d="M128.5,35.47c-7.85-8.18-13.09,8.18-3.6,8.18C129.16,43.65,131.45,38.41,128.5,35.47Z"/><g class="cls-3"><path class="cls-4" d="M81.72,35.43,16.28,145.51H147.16Zm30,64.89L88.19,78.55,80.48,91.09l-6.2-7.44L52.79,98.39,81.72,49.76Z"/></g></g></g></svg>