<svg xmlns="http://www.w3.org/2000/svg" viewBox="0 0 99.4 92.38"><defs><style>.cls-1{fill:#0d365a;}</style></defs><g id="Layer_2" data-name="Layer 2"><g id="Layer_1-2" data-name="Layer 1"><path class="cls-1" d="M63,8a10.44,10.44,0,1,1,7.7,12.6A10.42,10.42,0,0,1,63,8ZM49.4,92.38h43a7,7,0,0,0,7-7,3,3,0,0,0-6,0,1,1,0,0,1-1,1H54.1l4.1-18.6a7.42,7.42,0,0,0-2-6.8l-7.3-7.3,29.5-2.8c.2,0,.4-.1.6-.1a4.37,4.37,0,0,0,3.6-4.9A4.67,4.67,0,0,0,77.8,42l-7.5.2L68.2,30a9,9,0,0,0-2.6-5L64,23.38h0l-5.5-5.5a5.49,5.49,0,0,0-7.7,0L28.4,40.38A6.35,6.35,0,0,0,26.5,45l26-2.4,7.5-7.5,2,11.4L3,52a3,3,0,0,0-2.7,3.3,3.15,3.15,0,0,0,2.1,2.6,2.46,2.46,0,0,0,1.2.1l30.5-2.9,2.1,2.1.9.9,9.4,9.4-3.9,17.8a4.1,4.1,0,0,0-.1,1.1H3a3,3,0,0,0,0,6H46.7"/></g></g></svg>