<svg xmlns="http://www.w3.org/2000/svg" viewBox="0 0 422.74 180"><defs><style>.cls-1{fill:#fff;}</style></defs><g id="Layer_2" data-name="Layer 2"><g id="Layer_1-2" data-name="Layer 1"><path class="cls-1" d="M53.74,49a15.86,15.86,0,1,0,15.81,15.9v-.09A15.86,15.86,0,0,0,53.74,49Z"/><path class="cls-1" d="M117.25,49a15.86,15.86,0,1,0,15.81,15.9v-.09A15.86,15.86,0,0,0,117.25,49Z"/><path class="cls-1" d="M180.29,49a15.86,15.86,0,1,0,15.81,15.9v-.09A15.86,15.86,0,0,0,180.29,49Z"/><path class="cls-1" d="M243.57,49a15.86,15.86,0,1,0,15.8,15.9v-.09A15.86,15.86,0,0,0,243.57,49Z"/><path class="cls-1" d="M306.79,49a15.86,15.86,0,1,0,15.86,15.85v0A15.86,15.86,0,0,0,306.79,49Z"/><path class="cls-1" d="M370.07,49a15.86,15.86,0,1,0,15.85,15.85v0A15.85,15.85,0,0,0,370.07,49Z"/><path class="cls-1" d="M422.24,118.79l-14.11-73.2A24.08,24.08,0,0,0,384.61,26H215.71V4.38a4.38,4.38,0,1,0-8.75,0V26H40.19A24.22,24.22,0,0,0,16.67,44.83L.58,117.8A24.07,24.07,0,0,0,24.1,147.11h4.09v24.37a8.56,8.56,0,0,0,17.08,0V147.11H61v24.37a8.52,8.52,0,0,0,17,0h0V147.11H91.47v24.37a8.56,8.56,0,0,0,17.08,0V147.11h15.76v24.37a8.52,8.52,0,0,0,17,0V147.11h13.55v24.37a8.52,8.52,0,0,0,17,0V147.11h15.9v24.37a8.52,8.52,0,0,0,17,0V147.11H218.3v24.37a8.52,8.52,0,0,0,17,0h0V147.11h15.53v24.37a8.52,8.52,0,0,0,17,0V147.11h13.45v24.37a8.52,8.52,0,0,0,17,0V147.11h15.76v24.37a8.52,8.52,0,0,0,17,0V147.11h13.46v24.37a8.52,8.52,0,0,0,17,0V147.11h15.76v24.37a8.52,8.52,0,0,0,17,0V147.11h4.37a23.88,23.88,0,0,0,23.53-28.23Zm-13.08,13a13.36,13.36,0,0,1-10.35,4.7h-4.37V131.4a8.66,8.66,0,0,0-6.26-8.24V102.42a15.9,15.9,0,0,0-15.85-15.81h-4.71a15.9,15.9,0,0,0-15.85,15.81v20.51a8.47,8.47,0,0,0-7.39,8.42v5.27H331.16V131.4a8.65,8.65,0,0,0-6.25-8.24V102.42a15.91,15.91,0,0,0-15.86-15.81h-4.7a15.91,15.91,0,0,0-15.86,15.81v20.51a8.46,8.46,0,0,0-7.38,8.42v5.27H267.79V131.4a8.65,8.65,0,0,0-6.25-8.24V102.42a15.91,15.91,0,0,0-15.86-15.81H241a15.91,15.91,0,0,0-15.53,15.81v20.51a8.46,8.46,0,0,0-7.38,8.42v5.27H204.61V131.4a8.66,8.66,0,0,0-6.25-8.24V102.42A15.91,15.91,0,0,0,182.5,86.61H178a15.9,15.9,0,0,0-15.85,15.81v20.51a8.45,8.45,0,0,0-7.29,8.47v5.27H141.34V131.4a8.66,8.66,0,0,0-6.26-8.24V102.42a15.9,15.9,0,0,0-15.81-15.81h-4.7a15.91,15.91,0,0,0-15.86,15.81v20.51a8.46,8.46,0,0,0-7.38,8.42v5.27H78.06V131.4a8.66,8.66,0,0,0-6.26-8.24V102.42A15.9,15.9,0,0,0,56.09,86.61h-4.7a15.91,15.91,0,0,0-15.86,15.81v20.51a8.46,8.46,0,0,0-7.38,8.42v5.27h-4.1A13.64,13.64,0,0,1,10.37,123a13.27,13.27,0,0,1,.32-3L26.83,47.19A13.79,13.79,0,0,1,40.19,36.46H384.46a13.74,13.74,0,0,1,13.46,11.2L412,120.91A13.44,13.44,0,0,1,409.16,131.82Z"/></g></g></svg>