<svg xmlns="http://www.w3.org/2000/svg" xmlns:xlink="http://www.w3.org/1999/xlink" viewBox="0 0 479.97 670.48"><defs><style>.cls-1{fill:none;}.cls-2{fill:#e4dfc9;}.cls-3{clip-path:url(#clip-path);}.cls-4{fill:#0d365a;}.cls-5{fill:#7e8764;}</style><clipPath id="clip-path"><path class="cls-1" d="M240,434.77c-107.42,0-194.81-87.49-194.81-195C45.23,132.46,132.62,45.2,240,45.2s194.7,87.26,194.7,194.52C434.74,347.28,347.4,434.77,240,434.77Z"/></clipPath></defs><g id="Layer_2" data-name="Layer 2"><g id="Layer_1-2" data-name="Layer 1"><path class="cls-2" d="M477.91,237.93C477.91,106.52,371.39,0,240,0S2.06,106.52,2.06,237.93c0,110,74.61,202.44,176,229.72l60.14,187.1.45,7.27L307,466.23C405.75,437.29,477.91,346.06,477.91,237.93Z"/><path d="M357.61,31A237.93,237.93,0,0,0,175.35,9C47.94,44.71-26.74,177.36,8.89,304.73c22.25,79.16,84.49,142.06,162.86,165.14l61.71,195.86c0,.14.17.18.23.3a6.65,6.65,0,0,0,2.17,3c.17.12.36.18.53.29a6.59,6.59,0,0,0,1.52.83,6.42,6.42,0,0,0,2.06.32,6.73,6.73,0,0,0,2.05-.32,6.55,6.55,0,0,0,1.52-.83c.19-.12.36-.18.54-.29a6.47,6.47,0,0,0,2.17-3c.05-.13.19-.17.23-.3l61.7-196A239.74,239.74,0,0,0,357.61,31Zm79.5,320A225.11,225.11,0,0,1,300.87,457.87c-.23.06-.4.24-.64.33a7,7,0,0,0-1.19.6,6.29,6.29,0,0,0-1,.82,8.49,8.49,0,0,0-.82.95,9.39,9.39,0,0,0-.67,1.21c-.09.21-.25.37-.33.6L240,641,183.7,462.38c-.06-.24-.25-.4-.34-.62a7.32,7.32,0,0,0-.66-1.19,7.69,7.69,0,0,0-.83-1,6.66,6.66,0,0,0-1-.79,9,9,0,0,0-1.2-.62,5.38,5.38,0,0,0-.64-.31C103.51,437,43.35,376.86,22,301.05c-33.6-120.11,36.84-245.25,157-278.91A226.14,226.14,0,0,1,457.85,179.23,224.23,224.23,0,0,1,437.11,351Z"/><path d="M240,29.74c-115.94,0-210.26,94.19-210.26,210,0,116.08,94.32,210.51,210.26,210.51S450.2,355.8,450.2,239.72C450.2,123.93,355.91,29.74,240,29.74Zm0,405c-107.42,0-194.81-87.49-194.81-195C45.22,132.45,132.61,45.18,240,45.18s194.7,87.27,194.7,194.53C434.73,347.27,347.4,434.76,240,434.76Z"/><g class="cls-3"><circle class="cls-4" cx="239.99" cy="239.99" r="210.22"/><path class="cls-5" d="M352.6,269.36l-9.45-99a20.57,20.57,0,0,0-20.56-18.76H244.33V128.06a5.14,5.14,0,0,0-10.13,0V151.6H155.89a20.78,20.78,0,0,0-20.74,18.87l-9.38,98.12a20.45,20.45,0,0,0,18.36,22.32c.67.06,1.35.09,2,.09H169v29.27a9.79,9.79,0,1,0,19.58,0V291h18v29.27a9.82,9.82,0,0,0,19.61,0V291H252v29.27a9.82,9.82,0,0,0,19.61,0V291h18v29.27a9.79,9.79,0,1,0,19.58,0V291h23.54a19.76,19.76,0,0,0,19.78-19.75q0-.94-.09-1.89Zm-13.93,7.1a7.74,7.74,0,0,1-5.75,2.57H309.38v-4.89a9.85,9.85,0,0,0-7.2-9.43V240.86a18.23,18.23,0,0,0-18.2-18.2h-5.14a18.23,18.23,0,0,0-18.19,18.2v23.59a9.85,9.85,0,0,0-8.61,9.69V279h-25.7v-4.86a9.83,9.83,0,0,0-7.2-9.43V240.86A18.25,18.25,0,0,0,201,222.66h-5.14a18.26,18.26,0,0,0-18.3,18.2h0v23.59a9.82,9.82,0,0,0-8.48,9.69V279H146.15a8.44,8.44,0,0,1-8.47-8.39c0-.29,0-.58,0-.86l9.38-98.15a8.81,8.81,0,0,1,8.79-8H322.51a8.68,8.68,0,0,1,8.68,7.91l9.46,99A7.55,7.55,0,0,1,338.67,276.46Z"/><circle class="cls-5" cx="198.27" cy="197.63" r="18.2"/><circle class="cls-5" cx="281.41" cy="197.63" r="18.2"/></g></g></g></svg>