<?xml version="1.0" encoding="utf-8"?>
<!-- Generator: Adobe Illustrator 26.0.1, SVG Export Plug-In . SVG Version: 6.00 Build 0)  -->
<svg version="1.1" id="Layer_1" xmlns="http://www.w3.org/2000/svg" xmlns:xlink="http://www.w3.org/1999/xlink" x="0px" y="0px"
	 viewBox="0 0 480 670.5" style="enable-background:new 0 0 480 670.5;" xml:space="preserve">
<style type="text/css">
	.st0{fill:#E4DFC9;}
	.st1{clip-path:url(#SVGID_00000093153249654974744410000014531462812459726495_);}
	.st2{fill:#0D365A;}
	.st3{fill:#7E8764;}
</style>
<g id="Layer_2_00000073722392949199814200000000542763510647478455_">
	<g id="Layer_1-2">
		<path class="st0" d="M477.9,237.9C477.9,106.5,371.4,0,240,0S2.1,106.5,2.1,237.9c0,110,74.6,202.4,176,229.7l60.1,187.1l0.4,7.3
			L307,466.2C405.8,437.3,477.9,346.1,477.9,237.9z"/>
		<path d="M357.6,31C302.2-0.4,236.6-8.3,175.4,9C47.9,44.7-26.7,177.4,8.9,304.7c22.2,79.2,84.5,142.1,162.9,165.1l61.7,195.9
			c0,0.1,0.2,0.2,0.2,0.3c0.4,1.2,1.2,2.2,2.2,3c0.2,0.1,0.4,0.2,0.5,0.3c0.5,0.3,1,0.6,1.5,0.8c0.7,0.2,1.4,0.3,2.1,0.3
			c0.7,0,1.4-0.1,2.1-0.3c0.5-0.2,1.1-0.5,1.5-0.8c0.2-0.1,0.4-0.2,0.5-0.3c1-0.8,1.8-1.8,2.2-3c0.1-0.1,0.2-0.2,0.2-0.3l61.7-196
			c126.9-37.7,199.3-171.1,161.6-298C452.1,112,411.9,61.5,357.6,31z M437.1,351c-29.3,52.4-78.4,90.8-136.2,106.9
			c-0.2,0.1-0.4,0.2-0.6,0.3c-0.4,0.2-0.8,0.4-1.2,0.6c-0.4,0.2-0.7,0.5-1,0.8c-0.3,0.3-0.6,0.6-0.8,1c-0.3,0.4-0.5,0.8-0.7,1.2
			c-0.1,0.2-0.2,0.4-0.3,0.6L240,641l-56.3-178.6c-0.1-0.2-0.2-0.4-0.3-0.6c-0.2-0.4-0.4-0.8-0.7-1.2c-0.2-0.4-0.5-0.7-0.8-1
			c-0.3-0.3-0.6-0.6-1-0.8c-0.4-0.2-0.8-0.4-1.2-0.6c-0.2-0.1-0.4-0.2-0.6-0.3C103.5,437,43.3,376.9,22,301
			C-11.6,180.9,58.8,55.8,179,22.1c120.3-33.7,245.1,36.5,278.8,156.8c0,0.1,0.1,0.2,0.1,0.3C474.2,237,466.7,298.8,437.1,351z"/>
		<path d="M240,29.7c-115.9,0-210.3,94.2-210.3,210c0,116.1,94.3,210.5,210.3,210.5s210.2-94.5,210.2-210.5
			C450.2,123.9,355.9,29.7,240,29.7z M240,434.7c-107.4,0-194.8-87.5-194.8-195c0-107.3,87.4-194.6,194.8-194.6
			s194.7,87.3,194.7,194.5C434.7,347.3,347.4,434.8,240,434.7L240,434.7z"/>
		<g>
			<defs>
				<path id="SVGID_1_" d="M240,434.8c-107.4,0-194.8-87.5-194.8-195c0-107.3,87.4-194.6,194.8-194.6s194.7,87.3,194.7,194.5
					C434.7,347.3,347.4,434.8,240,434.8z"/>
			</defs>
			<clipPath id="SVGID_00000092421239410784762580000011320370592977509027_">
				<use xlink:href="#SVGID_1_"  style="overflow:visible;"/>
			</clipPath>
			<g style="clip-path:url(#SVGID_00000092421239410784762580000011320370592977509027_);">
				<circle class="st2" cx="240" cy="240" r="210.2"/>
				<path class="st3" d="M352.6,269.4l-9.5-99c-0.9-10.6-9.9-18.8-20.6-18.8h-78.3v-23.5c-0.5-2.8-3.1-4.7-5.9-4.2
					c-2.1,0.4-3.8,2-4.2,4.2v23.5h-78.3c-10.8,0-19.8,8.2-20.7,18.9l-9.4,98.1c-1.1,11.2,7.1,21.2,18.4,22.3c0.7,0.1,1.4,0.1,2,0.1
					H169v29.3c0,5.4,4.4,9.8,9.8,9.8c5.4,0,9.8-4.4,9.8-9.8V291h18v29.3c0.3,5.4,4.9,9.6,10.3,9.3c5-0.3,9-4.3,9.3-9.3V291H252v29.3
					c0.3,5.4,4.9,9.6,10.3,9.3c5-0.3,9-4.3,9.3-9.3V291h18v29.3c0,5.4,4.4,9.8,9.8,9.8c5.4,0,9.8-4.4,9.8-9.8c0,0,0,0,0,0V291h23.5
					c10.9,0,19.8-8.8,19.8-19.7c0,0,0,0,0,0c0-0.6,0-1.3-0.1-1.9H352.6z M338.7,276.5c-1.5,1.6-3.6,2.6-5.8,2.6h-23.5v-4.9
					c0-4.4-3-8.2-7.2-9.4v-23.8c0-10-8.2-18.2-18.2-18.2h-5.1c-10,0-18.2,8.2-18.2,18.2v23.6c-4.9,0.6-8.6,4.8-8.6,9.7v4.9h-25.7
					v-4.9c0-4.4-3-8.3-7.2-9.4v-23.9c0-10-8.1-18.1-18.1-18.2h-5.1c-10.1,0-18.3,8.1-18.3,18.2l0,0v23.6c-4.8,0.7-8.5,4.8-8.5,9.7
					v4.9h-22.9c-4.7,0-8.4-3.7-8.5-8.4c0-0.3,0-0.6,0-0.9l9.4-98.1c0.4-4.5,4.2-8,8.8-8h166.7c4.5,0,8.3,3.4,8.7,7.9l9.5,99
					C340.9,272.7,340.2,274.9,338.7,276.5z"/>
				<circle class="st3" cx="198.3" cy="197.6" r="18.2"/>
				<circle class="st3" cx="281.4" cy="197.6" r="18.2"/>
			</g>
		</g>
	</g>
</g>
</svg>
