<svg xmlns="http://www.w3.org/2000/svg" viewBox="0 0 154.34 180"><defs><style>.cls-1{fill:#0d365a;}</style></defs><g id="Layer_2" data-name="Layer 2"><g id="Layer_1-2" data-name="Layer 1"><path class="cls-1" d="M37.57,32.4a11.3,11.3,0,0,0-9.95,12.51L32.31,85.8A11.22,11.22,0,0,0,36,92.91a9.36,9.36,0,0,0,3.06,3.33l23.67,15.59v31.53a7.8,7.8,0,1,0,15.6,0V103.53c0-.06,0-.12,0-.16A9.65,9.65,0,0,0,74,95.23L54.7,82.5,51,50.24H83.5a6.35,6.35,0,1,0,0-12.69H48.33A11.2,11.2,0,0,0,37.57,32.4Zm57.75,5.8L122.39,8.11l-4.42-4L91.52,33.51A13.46,13.46,0,0,1,95.32,38.2ZM63.15,73.71,78.27,57h-8L58.73,69.71Zm90.79,53.23-5.4,1.27a8.45,8.45,0,0,1-6.15,10.16L0,174.56,1.35,180l142.36-36.16A14,14,0,0,0,153.94,126.94ZM42.08,118.5a3.79,3.79,0,0,0,4.71-5.94L22.27,93.1a3.79,3.79,0,0,0-4.71,6Zm-5-89.36A14.63,14.63,0,0,0,51.46,14.41,14.35,14.35,0,0,0,37,0,14.58,14.58,0,0,0,22.6,14.71,14.39,14.39,0,0,0,37.09,29.14Z"/></g></g></svg>