<svg xmlns="http://www.w3.org/2000/svg" viewBox="0 0 260.95 180"><defs><style>.cls-1{fill:#0d365a;}</style></defs><g id="Layer_2" data-name="Layer 2"><g id="Layer_1-2" data-name="Layer 1"><circle class="cls-1" cx="60.69" cy="64.94" r="15.82"/><circle class="cls-1" cx="131.04" cy="64.94" r="15.82"/><circle class="cls-1" cx="201.42" cy="64.94" r="15.82"/><path class="cls-1" d="M260.86,127.09l-11-86c-1.18-9.18-10.74-16.14-22.25-16.14H134.89V4.4a4.41,4.41,0,0,0-8.81,0V24.94H33.41c-11.56,0-21.18,7-22.38,16.23L.11,126.41A15.36,15.36,0,0,0,4,138.62a24.09,24.09,0,0,0,18,7.45H35.23v25.42a8.51,8.51,0,0,0,17,0h0V146.07H68v25.42a8.51,8.51,0,0,0,17,0V146.07h20.54v25.42a8.51,8.51,0,0,0,17,0V146.07h15.73v25.42a8.51,8.51,0,0,0,17,0V146.07h20.54v25.42a8.51,8.51,0,0,0,17,0h0V146.07h15.7v25.42a8.51,8.51,0,0,0,17,0h0V146.07h14a23.25,23.25,0,0,0,17.35-7.19A14.7,14.7,0,0,0,260.86,127.09ZM249.12,132a12.84,12.84,0,0,1-9.51,3.64H225.73v-4.2a8.54,8.54,0,0,0-6.25-8.22V102.5a15.84,15.84,0,0,0-15.81-15.82h-4.49A15.88,15.88,0,0,0,183.3,102.5V123a8.53,8.53,0,0,0-7.36,8.45v4.2H155.4v-4.26a8.59,8.59,0,0,0-6.25-8.22V102.5a15.88,15.88,0,0,0-15.73-15.82h-4.64a15.85,15.85,0,0,0-15.9,15.79V123a8.55,8.55,0,0,0-7.4,8.45v4.2H84.94v-4.26a8.54,8.54,0,0,0-6.25-8.22V102.5A15.84,15.84,0,0,0,63,86.68H58.42A15.87,15.87,0,0,0,42.6,102.5V123a8.54,8.54,0,0,0-7.37,8.45v4.2H22.06a13.79,13.79,0,0,1-10.18-4,4.84,4.84,0,0,1-1.44-4L21.38,42.49c.5-3.93,5.87-7.1,12-7.1H227.58c6.08,0,11.42,3.14,11.92,7l11,86a4.46,4.46,0,0,1-1.29,3.58Z"/></g></g></svg>