<svg xmlns="http://www.w3.org/2000/svg" viewBox="0 0 198.04 180"><defs><style>.cls-1{fill:#fff;}</style></defs><g id="Layer_2" data-name="Layer 2"><g id="Layer_1-2" data-name="Layer 1"><circle class="cls-1" cx="63.36" cy="64.43" r="15.88"/><circle class="cls-1" cx="135.91" cy="64.43" r="15.88"/><path class="cls-1" d="M198,127l-8.26-86.39a17.93,17.93,0,0,0-17.94-16.37H103.55V3.71a4.49,4.49,0,0,0-8.84,0V24.26H26.37A18.12,18.12,0,0,0,8.27,40.72L.09,126.35a17.81,17.81,0,0,0,16,19.47,17.48,17.48,0,0,0,1.77.09H37.81v25.54a8.55,8.55,0,1,0,17.09,0V145.91H70.6v25.54a8.57,8.57,0,0,0,17.11,0V145.91h22.57v25.54a8.57,8.57,0,0,0,17.11,0V145.91h15.7v25.54a8.55,8.55,0,1,0,17.09,0V145.91h20.54A17.25,17.25,0,0,0,198,128.67a15.19,15.19,0,0,0-.08-1.65Zm-12.16,6.19a6.73,6.73,0,0,1-5,2.25H160.31V131.2A8.6,8.6,0,0,0,154,123V102.15a15.9,15.9,0,0,0-15.88-15.88h-4.48a15.9,15.9,0,0,0-15.88,15.88v20.59a8.58,8.58,0,0,0-7.51,8.46v4.23H87.85V131.2A8.6,8.6,0,0,0,81.57,123V102.15A15.93,15.93,0,0,0,65.69,86.27H61.2a15.94,15.94,0,0,0-16,15.88h0v20.59a8.57,8.57,0,0,0-7.4,8.46v4.23h-20a7.35,7.35,0,0,1-7.39-7.32q0-.38,0-.75L18.7,41.71a7.7,7.7,0,0,1,7.67-7h145.4a7.6,7.6,0,0,1,7.59,6.91L187.61,128A6.56,6.56,0,0,1,185.88,133.21Z"/></g></g></svg>